<mxfile host="Electron" modified="2024-05-10T12:47:54.157Z" agent="Mozilla/5.0 (Windows NT 10.0; Win64; x64) AppleWebKit/537.36 (KHTML, like Gecko) draw.io/24.2.5 Chrome/120.0.6099.109 Electron/28.1.0 Safari/537.36" etag="sO1X3d3Lw7NFxNS2va2v" version="24.2.5" type="device" pages="2">
  <diagram name="naming-convention" id="-WQEmchFadrZqf95fUbN">
    <mxGraphModel dx="1434" dy="836" grid="1" gridSize="10" guides="1" tooltips="1" connect="1" arrows="1" fold="1" page="1" pageScale="1" pageWidth="827" pageHeight="1169" math="0" shadow="0">
      <root>
        <mxCell id="0" />
        <mxCell id="1" parent="0" />
        <mxCell id="X2wFetRyzOpcx8oUMEqo-1" value="vnet-sample-dev-nwe-001" style="text;html=1;align=center;verticalAlign=middle;whiteSpace=wrap;rounded=0;fontSize=24;" parent="1" vertex="1">
          <mxGeometry x="160" y="160" width="310" height="30" as="geometry" />
        </mxCell>
        <mxCell id="X2wFetRyzOpcx8oUMEqo-2" value="Resource&lt;div&gt;Type&lt;/div&gt;" style="rounded=0;whiteSpace=wrap;html=1;" parent="1" vertex="1">
          <mxGeometry x="137" y="214" width="70" height="40" as="geometry" />
        </mxCell>
        <mxCell id="X2wFetRyzOpcx8oUMEqo-3" value="Workload/&lt;div&gt;Application&lt;/div&gt;" style="rounded=0;whiteSpace=wrap;html=1;" parent="1" vertex="1">
          <mxGeometry x="207" y="214" width="80" height="40" as="geometry" />
        </mxCell>
        <mxCell id="X2wFetRyzOpcx8oUMEqo-4" value="Environment" style="rounded=0;whiteSpace=wrap;html=1;" parent="1" vertex="1">
          <mxGeometry x="287" y="214" width="80" height="40" as="geometry" />
        </mxCell>
        <mxCell id="X2wFetRyzOpcx8oUMEqo-5" value="Azure&lt;div&gt;Region&lt;/div&gt;" style="rounded=0;whiteSpace=wrap;html=1;" parent="1" vertex="1">
          <mxGeometry x="367" y="214" width="60" height="40" as="geometry" />
        </mxCell>
        <mxCell id="X2wFetRyzOpcx8oUMEqo-6" value="Instance" style="rounded=0;whiteSpace=wrap;html=1;" parent="1" vertex="1">
          <mxGeometry x="427" y="214" width="60" height="40" as="geometry" />
        </mxCell>
        <mxCell id="X2wFetRyzOpcx8oUMEqo-9" value="" style="shape=curlyBracket;whiteSpace=wrap;html=1;rounded=1;flipH=1;labelPosition=right;verticalLabelPosition=middle;align=left;verticalAlign=middle;rotation=90;" parent="1" vertex="1">
          <mxGeometry x="187.5" y="177.5" width="20" height="45" as="geometry" />
        </mxCell>
        <mxCell id="X2wFetRyzOpcx8oUMEqo-10" value="" style="shape=curlyBracket;whiteSpace=wrap;html=1;rounded=1;flipH=1;labelPosition=right;verticalLabelPosition=middle;align=left;verticalAlign=middle;rotation=90;" parent="1" vertex="1">
          <mxGeometry x="256.5" y="162.5" width="20" height="75" as="geometry" />
        </mxCell>
        <mxCell id="X2wFetRyzOpcx8oUMEqo-11" value="" style="shape=curlyBracket;whiteSpace=wrap;html=1;rounded=1;flipH=1;labelPosition=right;verticalLabelPosition=middle;align=left;verticalAlign=middle;rotation=90;" parent="1" vertex="1">
          <mxGeometry x="323.25" y="181.25" width="20" height="37.5" as="geometry" />
        </mxCell>
        <mxCell id="X2wFetRyzOpcx8oUMEqo-13" value="" style="shape=curlyBracket;whiteSpace=wrap;html=1;rounded=1;flipH=1;labelPosition=right;verticalLabelPosition=middle;align=left;verticalAlign=middle;rotation=90;" parent="1" vertex="1">
          <mxGeometry x="372.5" y="178.75" width="20" height="42.5" as="geometry" />
        </mxCell>
        <mxCell id="X2wFetRyzOpcx8oUMEqo-14" value="" style="shape=curlyBracket;whiteSpace=wrap;html=1;rounded=1;flipH=1;labelPosition=right;verticalLabelPosition=middle;align=left;verticalAlign=middle;rotation=90;" parent="1" vertex="1">
          <mxGeometry x="423" y="178.75" width="20" height="42.5" as="geometry" />
        </mxCell>
      </root>
    </mxGraphModel>
  </diagram>
  <diagram name="cover" id="EFw91M3MBH8ARy3N52KL">
    <mxGraphModel dx="1195" dy="697" grid="1" gridSize="10" guides="1" tooltips="1" connect="1" arrows="1" fold="1" page="1" pageScale="1" pageWidth="827" pageHeight="1169" math="0" shadow="0">
      <root>
        <mxCell id="2_HejJVe_jmI2wki_wEb-0" />
        <mxCell id="2_HejJVe_jmI2wki_wEb-1" parent="2_HejJVe_jmI2wki_wEb-0" />
        <mxCell id="2_HejJVe_jmI2wki_wEb-2" value="vnet-sample-dev-nwe-001" style="text;html=1;align=center;verticalAlign=middle;whiteSpace=wrap;rounded=0;fontSize=34;" vertex="1" parent="2_HejJVe_jmI2wki_wEb-1">
          <mxGeometry x="117" y="132.5" width="420" height="30" as="geometry" />
        </mxCell>
        <mxCell id="2_HejJVe_jmI2wki_wEb-3" value="Resource&lt;div style=&quot;font-size: 17px;&quot;&gt;Type&lt;/div&gt;" style="rounded=0;whiteSpace=wrap;html=1;fontSize=17;" vertex="1" parent="2_HejJVe_jmI2wki_wEb-1">
          <mxGeometry x="95" y="200" width="91" height="56" as="geometry" />
        </mxCell>
        <mxCell id="2_HejJVe_jmI2wki_wEb-4" value="Workload/&lt;div style=&quot;font-size: 17px;&quot;&gt;Application&lt;/div&gt;" style="rounded=0;whiteSpace=wrap;html=1;fontSize=17;" vertex="1" parent="2_HejJVe_jmI2wki_wEb-1">
          <mxGeometry x="185" y="200" width="105.5" height="56" as="geometry" />
        </mxCell>
        <mxCell id="2_HejJVe_jmI2wki_wEb-5" value="Environment" style="rounded=0;whiteSpace=wrap;html=1;fontSize=17;" vertex="1" parent="2_HejJVe_jmI2wki_wEb-1">
          <mxGeometry x="290.5" y="200" width="114.5" height="56" as="geometry" />
        </mxCell>
        <mxCell id="2_HejJVe_jmI2wki_wEb-6" value="Azure&lt;div style=&quot;font-size: 17px;&quot;&gt;Region&lt;/div&gt;" style="rounded=0;whiteSpace=wrap;html=1;fontSize=17;" vertex="1" parent="2_HejJVe_jmI2wki_wEb-1">
          <mxGeometry x="405" y="200" width="70" height="56" as="geometry" />
        </mxCell>
        <mxCell id="2_HejJVe_jmI2wki_wEb-7" value="Instance" style="rounded=0;whiteSpace=wrap;html=1;fontSize=17;" vertex="1" parent="2_HejJVe_jmI2wki_wEb-1">
          <mxGeometry x="475" y="200" width="80" height="56" as="geometry" />
        </mxCell>
        <mxCell id="2_HejJVe_jmI2wki_wEb-8" value="" style="shape=curlyBracket;whiteSpace=wrap;html=1;rounded=1;flipH=1;labelPosition=right;verticalLabelPosition=middle;align=left;verticalAlign=middle;rotation=90;strokeWidth=2;" vertex="1" parent="2_HejJVe_jmI2wki_wEb-1">
          <mxGeometry x="155.5" y="145.5" width="20" height="70" as="geometry" />
        </mxCell>
        <mxCell id="2_HejJVe_jmI2wki_wEb-9" value="" style="shape=curlyBracket;whiteSpace=wrap;html=1;rounded=1;flipH=1;labelPosition=right;verticalLabelPosition=middle;align=left;verticalAlign=middle;rotation=90;strokeWidth=2;" vertex="1" parent="2_HejJVe_jmI2wki_wEb-1">
          <mxGeometry x="251.5" y="125.5" width="20" height="110" as="geometry" />
        </mxCell>
        <mxCell id="2_HejJVe_jmI2wki_wEb-10" value="" style="shape=curlyBracket;whiteSpace=wrap;html=1;rounded=1;flipH=1;labelPosition=right;verticalLabelPosition=middle;align=left;verticalAlign=middle;rotation=90;strokeWidth=2;" vertex="1" parent="2_HejJVe_jmI2wki_wEb-1">
          <mxGeometry x="344.38" y="152.375" width="20" height="56.25" as="geometry" />
        </mxCell>
        <mxCell id="2_HejJVe_jmI2wki_wEb-11" value="" style="shape=curlyBracket;whiteSpace=wrap;html=1;rounded=1;flipH=1;labelPosition=right;verticalLabelPosition=middle;align=left;verticalAlign=middle;rotation=90;strokeWidth=2;" vertex="1" parent="2_HejJVe_jmI2wki_wEb-1">
          <mxGeometry x="414.23" y="150.02" width="20" height="60.96" as="geometry" />
        </mxCell>
        <mxCell id="2_HejJVe_jmI2wki_wEb-12" value="" style="shape=curlyBracket;whiteSpace=wrap;html=1;rounded=1;flipH=1;labelPosition=right;verticalLabelPosition=middle;align=left;verticalAlign=middle;rotation=90;strokeWidth=2;" vertex="1" parent="2_HejJVe_jmI2wki_wEb-1">
          <mxGeometry x="483.2" y="152.055" width="20" height="56.89" as="geometry" />
        </mxCell>
        <mxCell id="Ztmr8UHsVivtMQ_IBBzu-0" value="" style="shape=image;verticalLabelPosition=bottom;labelBackgroundColor=default;verticalAlign=top;aspect=fixed;imageAspect=0;image=https://github.com/Azure/ALZ-Bicep/wiki/media/bicep-logo.png;" vertex="1" parent="2_HejJVe_jmI2wki_wEb-1">
          <mxGeometry x="500" y="230" width="130" height="130" as="geometry" />
        </mxCell>
      </root>
    </mxGraphModel>
  </diagram>
</mxfile>
